<svg width="410" height="410" viewBox="0 0 410 410" fill="none" xmlns="http://www.w3.org/2000/svg">
    <g filter="url(#filter0_d_1_32)">
        <rect x="6" y="6" width="384" height="384" rx="80" fill="#F5F5F5"/>
        <rect x="6" y="6" width="384" height="384" rx="80" stroke="#2B2B2B" stroke-width="12"/>
    </g>
    <path d="M133.249 335.36C130.777 335.36 128.869 334.676 127.525 333.308C126.205 331.94 125.545 330.08 125.545 327.728V308.72H129.109V327.728C129.109 329.12 129.445 330.212 130.117 331.004C130.813 331.796 131.857 332.192 133.249 332.192C134.617 332.192 135.649 331.796 136.345 331.004C137.065 330.212 137.425 329.12 137.425 327.728V308.72H140.989V327.728C140.989 330.104 140.317 331.976 138.973 333.344C137.653 334.688 135.745 335.36 133.249 335.36ZM147.239 341.48V315.2H150.767V318.908H150.803C151.043 317.636 151.631 316.64 152.567 315.92C153.527 315.2 154.739 314.84 156.203 314.84C158.171 314.84 159.755 315.512 160.955 316.856C162.155 318.176 162.755 319.976 162.755 322.256V327.908C162.755 330.212 162.155 332.036 160.955 333.38C159.779 334.7 158.195 335.36 156.203 335.36C154.763 335.36 153.563 335 152.603 334.28C151.643 333.536 151.043 332.528 150.803 331.256H150.731L150.803 335.756V341.48H147.239ZM154.979 332.264C156.299 332.264 157.331 331.88 158.075 331.112C158.819 330.32 159.191 329.192 159.191 327.728V322.436C159.191 320.996 158.819 319.892 158.075 319.124C157.331 318.332 156.299 317.936 154.979 317.936C153.683 317.936 152.663 318.332 151.919 319.124C151.175 319.916 150.803 321.032 150.803 322.472V327.728C150.803 329.168 151.175 330.284 151.919 331.076C152.663 331.868 153.683 332.264 154.979 332.264ZM176.565 335.36C174.141 335.36 172.197 334.688 170.733 333.344C169.269 331.976 168.537 330.104 168.537 327.728V322.436C168.537 320.084 169.269 318.236 170.733 316.892C172.197 315.524 174.141 314.84 176.565 314.84C178.893 314.84 180.765 315.464 182.181 316.712C183.597 317.936 184.341 319.616 184.413 321.752H180.885C180.813 320.552 180.393 319.628 179.625 318.98C178.857 318.308 177.837 317.972 176.565 317.972C175.197 317.972 174.105 318.368 173.289 319.16C172.497 319.928 172.101 321.02 172.101 322.436V327.728C172.101 329.168 172.497 330.272 173.289 331.04C174.105 331.808 175.197 332.192 176.565 332.192C177.837 332.192 178.857 331.868 179.625 331.22C180.393 330.572 180.813 329.648 180.885 328.448H184.413C184.341 330.584 183.597 332.276 182.181 333.524C180.765 334.748 178.893 335.36 176.565 335.36ZM196.171 335.36C194.083 335.36 192.439 334.832 191.239 333.776C190.063 332.696 189.475 331.244 189.475 329.42C189.475 327.548 190.087 326.084 191.311 325.028C192.559 323.948 194.251 323.408 196.387 323.408H202.147V321.536C202.147 320.384 201.787 319.496 201.067 318.872C200.371 318.224 199.399 317.9 198.151 317.9C197.023 317.9 196.075 318.152 195.307 318.656C194.563 319.136 194.107 319.772 193.939 320.564H190.447C190.543 319.412 190.939 318.416 191.635 317.576C192.331 316.712 193.243 316.04 194.371 315.56C195.499 315.08 196.771 314.84 198.187 314.84C200.491 314.84 202.315 315.44 203.659 316.64C205.027 317.816 205.711 319.412 205.711 321.428V335H202.219V331.328H202.183C202.015 332.576 201.391 333.56 200.311 334.28C199.231 335 197.851 335.36 196.171 335.36ZM197.143 332.588C198.583 332.588 199.771 332.228 200.707 331.508C201.667 330.764 202.147 329.816 202.147 328.664V325.964H196.459C195.403 325.964 194.563 326.252 193.939 326.828C193.339 327.404 193.039 328.184 193.039 329.168C193.039 330.248 193.399 331.088 194.119 331.688C194.839 332.288 195.847 332.588 197.143 332.588ZM218.945 335.288C216.857 335.288 215.141 334.808 213.797 333.848C212.477 332.888 211.817 331.58 211.817 329.924H215.453C215.453 330.668 215.777 331.244 216.425 331.652C217.097 332.036 217.961 332.228 219.017 332.228H220.529C221.777 332.228 222.701 331.988 223.301 331.508C223.901 331.004 224.201 330.344 224.201 329.528C224.201 328.712 223.913 328.076 223.337 327.62C222.761 327.164 221.945 326.84 220.889 326.648L218.189 326.252C214.253 325.628 212.285 323.72 212.285 320.528C212.285 318.704 212.885 317.312 214.085 316.352C215.285 315.392 217.001 314.912 219.233 314.912H220.601C222.665 314.912 224.321 315.38 225.569 316.316C226.817 317.228 227.441 318.44 227.441 319.952H223.805C223.805 319.352 223.505 318.872 222.905 318.512C222.329 318.152 221.537 317.972 220.529 317.972H219.161C218.057 317.972 217.217 318.2 216.641 318.656C216.065 319.088 215.777 319.712 215.777 320.528C215.777 321.92 216.761 322.772 218.729 323.084L221.429 323.516C223.589 323.852 225.173 324.488 226.181 325.424C227.189 326.336 227.693 327.656 227.693 329.384C227.693 331.232 227.081 332.684 225.857 333.74C224.657 334.772 222.857 335.288 220.457 335.288H218.945ZM241.179 335.36C239.595 335.36 238.203 335.048 237.003 334.424C235.827 333.776 234.915 332.888 234.267 331.76C233.619 330.608 233.295 329.264 233.295 327.728V322.436C233.295 320.924 233.619 319.604 234.267 318.476C234.915 317.324 235.827 316.436 237.003 315.812C238.203 315.164 239.595 314.84 241.179 314.84C242.763 314.84 244.143 315.164 245.319 315.812C246.519 316.436 247.443 317.324 248.091 318.476C248.739 319.604 249.063 320.924 249.063 322.436V325.964H236.787V327.728C236.787 329.264 237.159 330.428 237.903 331.22C238.671 332.012 239.763 332.408 241.179 332.408C242.379 332.408 243.339 332.204 244.059 331.796C244.779 331.364 245.235 330.728 245.427 329.888H248.955C248.715 331.568 247.875 332.9 246.435 333.884C245.019 334.868 243.267 335.36 241.179 335.36ZM236.787 322.436V323.408H245.607V322.436C245.607 320.924 245.223 319.772 244.455 318.98C243.711 318.164 242.619 317.756 241.179 317.756C239.739 317.756 238.647 318.164 237.903 318.98C237.159 319.772 236.787 320.924 236.787 322.436ZM255.745 335V315.2H259.273V318.98H259.345C259.513 317.66 260.053 316.64 260.965 315.92C261.901 315.2 263.125 314.84 264.637 314.84C266.677 314.84 268.309 315.5 269.533 316.82C270.757 318.14 271.369 319.916 271.369 322.148V323.588H267.769V322.436C267.769 321.02 267.397 319.916 266.653 319.124C265.933 318.332 264.865 317.936 263.449 317.936C260.689 317.936 259.309 319.46 259.309 322.508V335H255.745Z" fill="#2B2B2B"/>
    <path d="M37.7212 256.993L76.1067 202.896C78.4983 199.526 83.5017 199.526 85.8933 202.896L124.279 256.993C127.098 260.966 124.257 266.465 119.386 266.465H110.762C107.449 266.465 104.762 269.151 104.762 272.465V340C104.762 343.314 102.076 346 98.7624 346H62.7426C59.4289 346 56.7426 343.314 56.7426 340V272.465C56.7426 269.151 54.0563 266.465 50.7426 266.465H42.6144C37.7428 266.465 34.902 260.966 37.7212 256.993Z" stroke="#2B2B2B" stroke-width="6"/>
    <path d="M64.2697 267.14C63.5977 267.14 63.019 267.028 62.5337 266.804C62.0577 266.58 61.689 266.258 61.4277 265.838C61.1663 265.418 61.031 264.919 61.0217 264.34H62.2817C62.2817 264.853 62.4543 265.259 62.7997 265.558C63.1543 265.857 63.6443 266.006 64.2697 266.006C64.8577 266.006 65.315 265.861 65.6417 265.572C65.9777 265.283 66.1457 264.881 66.1457 264.368C66.1457 263.957 66.0337 263.598 65.8097 263.29C65.595 262.982 65.2823 262.767 64.8717 262.646L63.4857 262.212C62.7857 261.997 62.2443 261.638 61.8617 261.134C61.4883 260.63 61.3017 260.037 61.3017 259.356C61.3017 258.805 61.423 258.329 61.6657 257.928C61.9177 257.517 62.2677 257.2 62.7157 256.976C63.1637 256.743 63.691 256.626 64.2977 256.626C65.1937 256.626 65.9123 256.878 66.4537 257.382C66.995 257.877 67.2703 258.539 67.2797 259.37H66.0197C66.0197 258.866 65.8657 258.474 65.5577 258.194C65.259 257.905 64.8343 257.76 64.2837 257.76C63.7423 257.76 63.3177 257.891 63.0097 258.152C62.711 258.413 62.5617 258.777 62.5617 259.244C62.5617 259.664 62.6737 260.028 62.8977 260.336C63.1217 260.644 63.4437 260.863 63.8637 260.994L65.2637 261.442C65.945 261.657 66.4723 262.021 66.8457 262.534C67.219 263.047 67.4057 263.649 67.4057 264.34C67.4057 264.9 67.275 265.39 67.0137 265.81C66.7523 266.23 66.3837 266.557 65.9077 266.79C65.441 267.023 64.895 267.14 64.2697 267.14ZM69.6962 267V256.78H70.9562V259.3V260.77H71.2222L70.9562 261.064C70.9562 260.457 71.1382 259.991 71.5022 259.664C71.8662 259.328 72.3702 259.16 73.0142 259.16C73.7889 259.16 74.4049 259.398 74.8622 259.874C75.3195 260.35 75.5482 260.999 75.5482 261.82V267H74.2882V261.96C74.2882 261.409 74.1389 260.985 73.8402 260.686C73.5509 260.378 73.1542 260.224 72.6502 260.224C72.1275 260.224 71.7122 260.387 71.4042 260.714C71.1055 261.041 70.9562 261.503 70.9562 262.1V267H69.6962ZM77.9927 267V265.852H80.7227V260.448H78.3427V259.3H81.9827V265.852H84.5727V267H77.9927ZM81.2127 257.914C80.9047 257.914 80.6621 257.835 80.4847 257.676C80.3074 257.517 80.2187 257.303 80.2187 257.032C80.2187 256.752 80.3074 256.533 80.4847 256.374C80.6621 256.206 80.9047 256.122 81.2127 256.122C81.5207 256.122 81.7634 256.206 81.9407 256.374C82.1181 256.533 82.2067 256.752 82.2067 257.032C82.2067 257.303 82.1181 257.517 81.9407 257.676C81.7634 257.835 81.5207 257.914 81.2127 257.914ZM88.2773 267V261.218H86.0373V260.07H88.2773V258.74C88.2773 258.133 88.4686 257.657 88.8513 257.312C89.2339 256.957 89.7613 256.78 90.4333 256.78H92.6873V257.928H90.4333C90.1439 257.928 89.9199 257.998 89.7613 258.138C89.6119 258.269 89.5373 258.469 89.5373 258.74V260.07H92.6873V261.218H89.5373V267H88.2773ZM98.6318 267C97.9691 267 97.4511 266.823 97.0778 266.468C96.7138 266.113 96.5318 265.614 96.5318 264.97V260.448H94.3618V259.3H96.5318V257.13H97.7918V259.3H100.872V260.448H97.7918V264.97C97.7918 265.558 98.0718 265.852 98.6318 265.852H100.732V267H98.6318Z" fill="#2B2B2B"/>
    <defs>
        <filter id="filter0_d_1_32" x="0" y="0" width="410" height="410" filterUnits="userSpaceOnUse" color-interpolation-filters="sRGB">
            <feFlood flood-opacity="0" result="BackgroundImageFix"/>
            <feColorMatrix in="SourceAlpha" type="matrix" values="0 0 0 0 0 0 0 0 0 0 0 0 0 0 0 0 0 0 127 0" result="hardAlpha"/>
            <feOffset dx="8" dy="8"/>
            <feGaussianBlur stdDeviation="3"/>
            <feComposite in2="hardAlpha" operator="out"/>
            <feColorMatrix type="matrix" values="0 0 0 0 0 0 0 0 0 0 0 0 0 0 0 0 0 0 0.25 0"/>
            <feBlend mode="normal" in2="BackgroundImageFix" result="effect1_dropShadow_1_32"/>
            <feBlend mode="normal" in="SourceGraphic" in2="effect1_dropShadow_1_32" result="shape"/>
        </filter>
    </defs>
</svg>
